<svg xmlns="http://www.w3.org/2000/svg" x="0px" y="0px"
width="64" height="64"
viewBox="0 0 172 172"
style=" fill:#000000;"><g fill="none" fill-rule="nonzero" stroke="none" stroke-width="1" stroke-linecap="butt" stroke-linejoin="miter" stroke-miterlimit="10" stroke-dasharray="" stroke-dashoffset="0" font-family="none" font-weight="none" font-size="none" text-anchor="none" style="mix-blend-mode: normal"><path d="M0,172v-172h172v172z" fill="none"></path><g fill="#f1c40f"><path d="M35.49718,6.71875c-4.72212,0 -8.62218,3.90059 -8.62218,8.62283v40.7193c0,4.72212 3.8998,8.62218 8.62218,8.62218h5.58627l0.99535,12.84174c0.09289,1.19643 0.81687,2.25247 1.89933,2.77049c1.08246,0.51802 2.35903,0.41936 3.34904,-0.25883l19.86034,-13.614v2.22099c0,4.72212 3.8998,8.62283 8.62218,8.62283h19.07364l22.39889,15.3534c0.99001,0.67819 2.26658,0.77686 3.34904,0.25883c1.08246,-0.51802 1.80644,-1.57406 1.89933,-2.77049l0.99535,-12.84239h5.58562c4.72212,0 8.62283,-3.90033 8.62283,-8.62283v-39.86371c0,-4.7225 -3.90072,-8.62283 -8.62283,-8.62283h-31.68967v-4.81467c0,-4.7225 -3.90072,-8.62283 -8.62283,-8.62283zM35.49718,13.4375h53.30186c1.09095,0 1.90408,0.81285 1.90408,1.90408v4.81467h-14.89345c-4.72212,0 -8.62218,3.90059 -8.62218,8.62283v29.5415c-0.13927,0.06805 -0.27366,0.14566 -0.40221,0.23227l-18.45753,12.65211l-0.78539,-10.14045c-0.13554,-1.74957 -1.59472,-3.10013 -3.34953,-3.10021h-8.69566c-1.09069,0 -1.90343,-0.81248 -1.90343,-1.90343v-40.7193c0,-1.09149 0.81248,-1.90408 1.90343,-1.90408zM75.80968,26.875h18.25282h35.04904c1.09095,0 1.90408,0.81285 1.90408,1.90408v39.86371c0,1.09123 -0.81314,1.90408 -1.90408,1.90408h-8.69501c-1.75481,0.00007 -3.21399,1.35064 -3.34953,3.10021l-0.78539,10.14045l-18.45819,-12.65212c-0.55916,-0.383 -1.22108,-0.58794 -1.89883,-0.58789h-20.11491c-1.09069,0 -1.90343,-0.81314 -1.90343,-1.90408v-7.31976v-32.5446c0,-0.06822 0.00297,-0.13552 0.00918,-0.20143c0.09326,-0.98864 0.87148,-1.70265 1.89424,-1.70265zM87.34375,36.95313c-1.21151,-0.01713 -2.3384,0.61939 -2.94915,1.66582c-0.61076,1.04644 -0.61076,2.34067 0,3.3871c0.61076,1.04644 1.73764,1.68296 2.94915,1.66582h30.23438c1.21151,0.01713 2.3384,-0.61939 2.94915,-1.66582c0.61076,-1.04644 0.61076,-2.34067 0,-3.3871c-0.61076,-1.04644 -1.73764,-1.68296 -2.94915,-1.66582zM87.34375,53.75c-1.21151,-0.01713 -2.3384,0.61939 -2.94915,1.66582c-0.61076,1.04644 -0.61076,2.34067 0,3.3871c0.61076,1.04644 1.73764,1.68296 2.94915,1.66582h30.23438c1.21151,0.01713 2.3384,-0.61939 2.94915,-1.66582c0.61076,-1.04644 0.61076,-2.34067 0,-3.3871c-0.61076,-1.04644 -1.73764,-1.68296 -2.94915,-1.66582zM88.22362,89.30623c-1.19138,0.03558 -2.27473,0.69972 -2.84694,1.7453l-7.49561,13.70454l-13.70454,7.49561c-1.07715,0.5894 -1.74697,1.71947 -1.74697,2.94733c0,1.22786 0.66983,2.35793 1.74697,2.94733l13.70454,7.49561l7.49561,13.70454c0.5894,1.07715 1.71947,1.74697 2.94733,1.74697c1.22786,0 2.35793,-0.66983 2.94733,-1.74697l7.49561,-13.70454l13.70454,-7.49561c1.07715,-0.5894 1.74697,-1.71947 1.74697,-2.94733c0,-1.22786 -0.66983,-2.35793 -1.74697,-2.94733l-13.70454,-7.49561l-7.49561,-13.70454c-0.60676,-1.10871 -1.7844,-1.7831 -3.04772,-1.7453zM35.27344,90.70313c-10.16454,0 -18.47656,8.31203 -18.47656,18.47656c0,5.74494 2.65654,10.89664 6.80077,14.29178c-9.94557,4.56685 -16.87889,14.62488 -16.87889,26.25562v14.88229c0.00019,1.85525 1.50412,3.35919 3.35938,3.35938h51.0251v-6.71875l3.35937,3.35938v-14.88229c0,-11.79132 -7.12691,-21.96525 -17.29356,-26.44064c4.01744,-3.39581 6.58096,-8.46455 6.58096,-14.10675c0,-10.16453 -8.31202,-18.47656 -18.47656,-18.47656zM138.77959,90.70313c-10.16454,0 -18.47656,8.31203 -18.47656,18.47656c0,5.74494 2.65654,10.89664 6.80077,14.29178c-9.94557,4.56685 -16.87889,14.62488 -16.87889,26.25562v14.88229c0.00019,1.85525 1.50412,3.35919 3.35938,3.35938h51.02444h0.00066v-6.71809l3.35872,3.35872v-14.88229c0,-11.79127 -7.1266,-21.9652 -17.29291,-26.44064c4.01744,-3.39581 6.58097,-8.46455 6.58097,-14.10675c0,-10.16453 -8.31202,-18.47656 -18.47656,-18.47656zM35.27344,97.42188c6.53346,0 11.75781,5.22436 11.75781,11.75781c0,6.11083 -4.57078,11.07536 -10.50789,11.6922c-0.30997,-0.00992 -0.6207,-0.0164 -0.93301,-0.0164c-0.4602,0 -0.91759,0.012 -1.37262,0.03346c-6.03109,-0.52779 -10.7021,-5.53215 -10.7021,-11.70926c0,-6.53345 5.22435,-11.75781 11.75781,-11.75781zM138.77959,97.42188c6.53346,0 11.75781,5.22436 11.75781,11.75781c0,6.11083 -4.57078,11.07536 -10.50789,11.6922c-0.30997,-0.00992 -0.6207,-0.0164 -0.93301,-0.0164c-0.4602,0 -0.91759,0.012 -1.37262,0.03346c-6.03109,-0.52779 -10.7021,-5.53215 -10.7021,-11.70926c0,-6.53345 5.22436,-11.75781 11.75781,-11.75781zM88.32401,99.66452l5.02003,9.17923c0.30828,0.56357 0.77165,1.02695 1.33522,1.33522l9.17923,5.02004l-9.17923,5.02003c-0.56357,0.30828 -1.02695,0.77165 -1.33522,1.33522l-5.02003,9.17923l-5.02069,-9.17923c-0.30828,-0.56357 -0.77165,-1.02695 -1.33522,-1.33522l-9.17858,-5.02003l9.17858,-5.02004c0.56357,-0.30828 1.02695,-0.77165 1.33522,-1.33522zM36.63228,127.60048c11.7868,0.54058 21.11157,10.20136 21.11157,22.1266v11.52292h-44.30635v-11.52292c0,-11.80589 9.13927,-21.38968 20.75858,-22.10495c0.35679,0.02077 0.71559,0.03412 1.07736,0.03412c0.45741,0 0.90953,-0.0227 1.35884,-0.05577zM140.13843,127.60048c11.78644,0.54058 21.11092,10.20142 21.11092,22.1266v11.52292h-44.30569v-11.52292c0,-11.80589 9.13927,-21.38968 20.75858,-22.10495c0.35679,0.02077 0.71559,0.03412 1.07736,0.03412c0.45741,0 0.90953,-0.0227 1.35884,-0.05577z"></path></g></g></svg>