<svg xmlns="http://www.w3.org/2000/svg" x="0px" y="0px"
width="64" height="64"
viewBox="0 0 172 172"
style=" fill:#000000;"><g fill="none" fill-rule="nonzero" stroke="none" stroke-width="1" stroke-linecap="butt" stroke-linejoin="miter" stroke-miterlimit="10" stroke-dasharray="" stroke-dashoffset="0" font-family="none" font-weight="none" font-size="none" text-anchor="none" style="mix-blend-mode: normal"><path d="M0,172v-172h172v172z" fill="none"></path><g fill="#f1c40f"><path d="M141.93359,47.7562c5.68003,-4.12598 9.38374,-10.81517 9.38374,-18.3573c0,-12.50595 -10.1742,-22.68048 -22.68048,-22.68048c-12.50628,0 -22.68048,10.17454 -22.68048,22.68048c0,7.5465 3.70808,14.23938 9.39449,18.3647c-0.96414,0.35945 -1.91249,0.76023 -2.84472,1.19728c-13.92763,-15.81862 -38.50885,-16.05714 -52.64342,-0.41791c-0.63425,-0.27715 -1.27522,-0.53817 -1.92391,-0.78005c5.68574,-4.12531 9.39348,-10.81786 9.39348,-18.36402c0,-12.50595 -10.17454,-22.68048 -22.68048,-22.68048c-12.50595,0 -22.67981,10.17488 -22.67981,22.68082c0,7.5465 3.70808,14.23938 9.39449,18.3647c-14.38283,5.39583 -24.64773,19.28584 -24.64773,35.53043v2.03377c0,1.85505 1.50399,3.35938 3.35938,3.35938h44.72336c2.81247,5.32226 6.8968,9.74756 11.77528,12.96618c-23.33556,4.3944 -41.04552,24.92555 -41.04552,49.5182v13.4375c0,1.85505 1.50399,3.35938 3.35938,3.35938h114.21875c1.85505,0 3.35938,-1.50433 3.35938,-3.35937v-13.4375c0,-24.59264 -17.71029,-45.1238 -41.04585,-49.5182c4.87848,-3.21862 8.96348,-7.64392 11.77595,-12.96618h46.01235c1.85505,0 3.4138,-1.50433 3.4138,-3.35937v-2.03377c0,-16.25198 -10.29077,-30.1477 -24.69141,-35.53816zM128.63685,13.4375c8.80123,0 15.96173,7.16017 15.96173,15.96173c0,8.80123 -7.16017,15.9614 -15.96173,15.9614c-8.80156,0 -15.96173,-7.16017 -15.96173,-15.9614c0,-8.80156 7.16051,-15.96173 15.96173,-15.96173zM28.69074,29.39923c0,-8.80156 7.16051,-15.96173 15.96173,-15.96173c8.80123,0 15.96173,7.16017 15.96173,15.96173c0,8.80123 -7.16017,15.9614 -15.96173,15.9614c-8.80156,0 -15.96173,-7.16051 -15.96173,-15.9614zM13.46538,81.96875c0.69741,-16.59934 14.41945,-29.88937 31.18709,-29.88937c3.78669,0 7.55456,0.69438 11.07552,2.02705c-5.2114,8.63729 -6.21182,18.92269 -3.64055,27.86232zM96.07813,107.5c24.08101,0 43.67188,19.59087 43.67188,43.67188v10.07813h-107.5v-10.07812c0,-24.08101 19.5912,-43.67187 43.67188,-43.67187zM86,100.78125c-11.21292,0 -21.43684,-6.60755 -26.04658,-16.83383c-4.16025,-9.22888 -3.25423,-20.52645 3.46184,-29.1933c0.00034,-0.00034 0.00034,-0.00067 0.00067,-0.00101c11.55423,-14.90891 34.15813,-14.80544 45.50744,0.44613c6.32234,8.49586 7.27271,19.54283 3.12287,28.74819c-4.6094,10.22627 -14.83332,16.83383 -26.04624,16.83383zM119.91255,81.96875c2.60956,-9.1328 1.45763,-19.10342 -3.39498,-27.44609c3.81558,-1.60545 7.94459,-2.44327 12.11928,-2.44327c16.76765,0 30.49002,13.29036 31.18709,29.88937z"></path></g></g></svg>