<svg xmlns="http://www.w3.org/2000/svg" x="0px" y="0px"
width="48" height="48"
viewBox="0 0 172 172"
style=" fill:#000000;"><defs><linearGradient x1="14.33333" y1="84.237" x2="157.66667" y2="84.237" gradientUnits="userSpaceOnUse" id="color-1_AZOZNnY73haj_gr1"><stop offset="0" stop-color="#4c4c4c"></stop><stop offset="1" stop-color="#343434"></stop></linearGradient></defs><g fill="none" fill-rule="nonzero" stroke="none" stroke-width="1" stroke-linecap="butt" stroke-linejoin="miter" stroke-miterlimit="10" stroke-dasharray="" stroke-dashoffset="0" font-family="none" font-weight="none" font-size="none" text-anchor="none" style="mix-blend-mode: normal"><path d="M0,172v-172h172v172z" fill="none"></path><g><path d="M86,14.33333c-39.5815,0 -71.66667,32.08517 -71.66667,71.66667c0,31.84508 20.78692,58.80608 49.52167,68.14067h44.29c28.73475,-9.33458 49.52167,-36.29558 49.52167,-68.14067c0,-39.5815 -32.08517,-71.66667 -71.66667,-71.66667z" fill="url(#color-1_AZOZNnY73haj_gr1)"></path><path d="M107.53583,150.48567l-0.03583,-20.77617c0,-3.36475 -0.78833,-6.65067 -2.3005,-9.62842c20.21358,-4.05992 30.04983,-16.01033 30.04983,-36.46758c0,-8.08042 -2.38292,-15.21483 -7.08067,-21.21333c0.35833,-1.13592 0.6235,-2.31125 0.78833,-3.51525c0.67367,-4.90558 -0.08242,-8.11267 -0.69158,-10.69267l-0.09675,-0.41567c-0.6665,-2.85233 -1.46558,-4.88767 -1.49783,-4.97367l-0.39775,-1.0105l-0.39775,-1.0105l-1.08217,-0.11467l-1.08575,-0.11467c0,0 -0.71308,-0.07525 -1.79525,-0.07525c-1.50142,0 -3.72667,0.1505 -5.83008,0.86358l-0.70233,0.2365c-2.65167,0.89225 -5.15642,1.73792 -8.66092,3.83058c-1.02483,0.61275 -2.14642,1.3115 -3.34683,2.09267c-5.42517,-1.34375 -11.26242,-2.02817 -17.372,-2.02817c-6.1705,0 -12.05792,0.688 -17.51892,2.04608c-1.21475,-0.78833 -2.3435,-1.49425 -3.3755,-2.11058c-3.5045,-2.09267 -6.00925,-2.93475 -8.66092,-3.83058l-0.70233,-0.2365c-2.09625,-0.71308 -4.32508,-0.86358 -5.8265,-0.86358c-1.08217,0 -1.79525,0.07525 -1.79525,0.07525l-1.08217,0.11467l-1.075,0.11108l-0.40133,1.00692l-0.40492,1.01408c-0.03583,0.09317 -0.83492,2.1285 -1.50142,4.98442l-0.09675,0.41208c-0.60917,2.57642 -1.36525,5.78708 -0.69158,10.68908c0.172,1.23983 0.44792,2.45458 0.82417,3.62275c-4.60458,5.96983 -6.93733,13.06483 -6.93733,21.10583c0,20.40708 9.847,32.35033 30.08925,36.4425c-0.69517,1.39033 -1.23625,2.8595 -1.61967,4.386c-0.70592,0.24008 -1.3545,0.40133 -1.92783,0.49092c-0.85283,0.129 -1.74508,0.1935 -2.64808,0.1935c-2.45817,0 -4.38958,-0.48017 -5.14208,-0.92808c-1.12158,-0.6665 -3.12467,-2.60508 -5.06683,-5.4395c-1.65908,-2.41875 -4.24625,-5.58283 -7.138,-6.90508c-2.50117,-1.14308 -5.14925,-1.79883 -7.27058,-1.79883c-0.4945,0 -0.94958,0.03583 -1.34733,0.10033c-1.85258,0.29383 -3.40058,1.3115 -4.24267,2.795c-0.72742,1.27925 -0.84208,2.76992 -0.31533,4.08858c0.78475,1.96367 3.04942,3.52958 4.81242,4.49708c0.86717,0.47658 2.74125,2.21808 3.83417,3.97392c0.82058,1.31867 1.20042,2.2575 1.72717,3.55467c0.31175,0.77042 0.65575,1.60892 1.12158,2.623c1.68417,3.66217 6.94092,6.89433 7.53575,7.24908c2.88817,1.73075 7.74358,2.28617 11.31258,2.44742l0.44075,0.01075h0.00358c0.86,0 2.0425,-0.08242 3.59767,-0.25442v9.36325c0.00717,1.89558 -1.92425,2.32558 -4.47917,2.28617l1.96008,0.65933c7.50708,2.68392 15.56958,4.21758 24.00833,4.21758c8.43875,0 16.50125,-1.53367 24.01908,-4.214l2.51908,-0.93883c-2.54775,-0.086 -4.98083,-0.50167 -5.00233,-2.02817z" fill="#000000" opacity="0.05"></path><path d="M110.29858,153.35592c-1.45483,0.16842 -4.59025,-0.39058 -4.59025,-2.84875v-20.79767c0,-3.92017 -1.17533,-7.70775 -3.354,-10.93633c21.19542,-3.42925 31.09975,-14.66658 31.09975,-35.15967c0,-8.01592 -2.45817,-15.0285 -7.30642,-20.86217c0.49092,-1.30792 0.83492,-2.6875 1.032,-4.11008c0.62708,-4.57233 -0.05733,-7.47483 -0.65933,-10.03692l-0.09675,-0.41567c-0.63783,-2.72692 -1.39033,-4.64758 -1.42258,-4.72642l-0.39775,-1.0105l-1.08575,-0.11467c0,0 -0.63783,-0.06808 -1.60892,-0.06808c-1.36525,0 -3.38267,0.13258 -5.25317,0.77042l-0.70233,0.2365c-2.5585,0.86358 -4.97725,1.677 -8.31692,3.66933c-1.18967,0.7095 -2.5155,1.54442 -3.94525,2.48683c-5.49325,-1.43692 -11.438,-2.16792 -17.69092,-2.16792c-6.31383,0 -12.30875,0.73458 -17.84142,2.18583c-1.44408,-0.94958 -2.77708,-1.78808 -3.97392,-2.50475c-3.33967,-1.99233 -5.75842,-2.80933 -8.31692,-3.66933l-0.70233,-0.2365c-1.86692,-0.63425 -3.88792,-0.77042 -5.25317,-0.77042c-0.97108,0 -1.60892,0.06808 -1.60892,0.06808l-1.08217,0.11467l-0.40492,1.01408c-0.03225,0.07883 -0.78475,1.9995 -1.42258,4.72642l-0.09675,0.41567c-0.60558,2.56208 -1.29,5.461 -0.65933,10.03333c0.20067,1.45842 0.559,2.87025 1.06783,4.20683c-4.75508,5.805 -7.16308,12.78175 -7.16308,20.76542c0,20.43575 9.9115,31.6695 31.12483,35.13817c-1.41542,2.11417 -2.40442,4.49708 -2.91325,7.03767c-1.1825,0.46583 -2.25392,0.774 -3.19275,0.91733c-0.94242,0.14333 -1.92425,0.215 -2.91683,0.215c-2.4725,0 -4.84825,-0.46225 -6.05583,-1.17892c-1.57667,-0.93525 -3.78758,-3.27517 -5.633,-5.96625c-1.25417,-1.8275 -3.75175,-5.07758 -6.407,-6.28875c-2.27542,-1.03917 -4.65117,-1.63758 -6.52525,-1.63758c-0.39417,0 -0.7525,0.02867 -1.06783,0.07883c-1.3115,0.20783 -2.39367,0.903 -2.967,1.9135c-0.45867,0.80267 -0.53392,1.73075 -0.21142,2.537c0.64142,1.60533 3.01717,3.04583 4.00975,3.5905c1.20042,0.65933 3.29308,2.666 4.4935,4.601c0.89942,1.44767 1.32583,2.49758 1.86692,3.82342c0.30458,0.74892 0.63783,1.56592 1.08933,2.55133c1.18608,2.57642 4.84825,5.27467 6.82625,6.46075c2.70183,1.61967 7.7185,2.07117 10.4705,2.193l0.39775,0.00717c1.07142,0 2.86667,-0.16125 5.35708,-0.48375v11.38425c0,2.79142 -3.55108,2.9025 -4.42183,2.9025c-0.11108,0 1.80242,0.65933 1.80242,0.65933c7.03408,2.30767 14.52683,3.59767 22.33133,3.59767c7.8045,0 15.29725,-1.29 22.32775,-3.59408c0,0 2.08192,-0.731 1.97083,-0.71667z" fill="#000000" opacity="0.07"></path><path d="M131.666,83.6135c0,-8.2775 -2.80217,-15.14317 -7.58592,-20.52533c0.51958,-1.16458 1.06067,-2.72692 1.32942,-4.69058c0.61633,-4.47917 -0.11108,-7.16667 -0.72742,-9.79683c-0.61633,-2.63017 -1.34375,-4.47917 -1.34375,-4.47917c0,0 -3.30383,-0.33683 -6.10242,0.61633c-2.79858,0.95317 -5.20658,1.68058 -8.67883,3.75175c-1.62325,0.9675 -3.25725,2.02817 -4.55083,2.88817c-5.52908,-1.53367 -11.61,-2.322 -18.00625,-2.322c-6.45358,0 -12.58825,0.79192 -18.15675,2.33633c-1.29717,-0.86358 -2.94192,-1.93142 -4.57592,-2.90608c-3.47225,-2.07117 -5.88025,-2.79858 -8.67883,-3.75175c-2.79858,-0.95317 -6.10242,-0.61633 -6.10242,-0.61633c0,0 -0.72742,1.849 -1.34375,4.47917c-0.61633,2.63017 -1.34375,5.31767 -0.72742,9.79683c0.27592,2.01383 0.83492,3.60483 1.36883,4.77658c-4.69417,5.34992 -7.44617,12.17258 -7.44617,20.43933c0,21.43908 11.58133,31.22517 32.68358,33.80875c-2.46175,2.6015 -4.11367,5.934 -4.66908,9.64275c-1.38675,0.60917 -2.98492,1.1825 -4.52217,1.41183c-3.956,0.59842 -8.13775,0 -10.15158,-1.19325c-2.01383,-1.19325 -4.40392,-3.88075 -6.19558,-6.49658c-1.51217,-2.20733 -3.69442,-4.76942 -5.67242,-5.67242c-2.61225,-1.19325 -5.15283,-1.64117 -6.56825,-1.419c-1.419,0.22575 -2.08908,1.2685 -1.79167,2.01742c0.29742,0.74533 1.71642,1.86692 3.21067,2.6875c1.49425,0.82058 3.80908,3.06017 5.15283,5.2245c1.49783,2.41517 1.79167,3.80908 3.06017,6.56825c0.89225,1.94217 3.94525,4.36808 6.12033,5.67242c1.86692,1.12158 5.59717,1.75942 9.632,1.94217c1.39392,0.0645 4.687,-0.344 7.46408,-0.73817v13.4375c0,2.28975 -2.09625,4.03125 -4.26775,3.62992c6.96958,2.3435 14.41217,3.53317 22.17725,3.53317c7.7615,0 15.20408,-1.18967 22.18083,-3.526c-2.16792,0.39775 -4.26417,-1.34375 -4.26417,-3.6335v-20.79767c0,-4.76225 -1.88842,-9.06583 -4.91992,-12.27292c20.94817,-2.5155 32.66925,-12.06867 32.66925,-33.82308zM40.27308,117.27175c-0.55183,-0.28308 -0.84925,-0.80625 -0.66292,-1.17533c0.18633,-0.36908 0.78833,-0.43717 1.34017,-0.15408c0.55183,0.28308 0.84925,0.80625 0.66292,1.17533c-0.18633,0.36908 -0.78833,0.43717 -1.34017,0.15408zM44.61608,119.97717c-0.29025,0.31533 -0.91375,0.215 -1.39392,-0.22217c-0.48017,-0.43717 -0.63425,-1.04992 -0.344,-1.36525c0.29025,-0.31533 0.91375,-0.215 1.39392,0.22217c0.48017,0.43717 0.63425,1.04992 0.344,1.36525zM47.31792,124.45633c-0.3655,0.258 -0.98542,0.01792 -1.38317,-0.5375c-0.39775,-0.55542 -0.42283,-1.21833 -0.05733,-1.47633c0.3655,-0.258 0.98542,-0.01792 1.38317,0.5375c0.39417,0.55542 0.42283,1.21833 0.05733,1.47633zM51.19867,127.82825c-0.24725,0.40133 -0.94958,0.41925 -1.56592,0.043c-0.61633,-0.37625 -0.91733,-1.00692 -0.67008,-1.40825c0.24725,-0.40133 0.94958,-0.41925 1.56592,-0.043c0.61633,0.37625 0.91733,1.00692 0.67008,1.40825zM54.868,131.1285c-0.76325,-0.09317 -1.32942,-0.56975 -1.26492,-1.06425c0.06092,-0.4945 0.731,-0.817 1.49067,-0.72383c0.76325,0.09317 1.32942,0.56975 1.26492,1.06425c-0.06092,0.49092 -0.72742,0.817 -1.49067,0.72383zM60.78408,131.98492c-0.81342,-0.04658 -1.44767,-0.51242 -1.41542,-1.03558c0.03225,-0.52317 0.71667,-0.91375 1.53008,-0.86717c0.81342,0.04658 1.44767,0.51242 1.41542,1.03558c-0.03225,0.52675 -0.71667,0.91375 -1.53008,0.86717zM66.36692,131.42592c-0.86717,0 -1.5695,-0.4515 -1.5695,-1.00692c0,-0.55542 0.70233,-1.00692 1.5695,-1.00692c0.86717,0 1.5695,0.4515 1.5695,1.00692c0,0.55542 -0.70592,1.00692 -1.5695,1.00692z" fill="#ffffff"></path></g></g></svg>