<svg
            xmlns="http://www.w3.org/2000/svg"
            x="0px"
            y="0px"
            width="48"
            height="48"
            viewBox="0 0 172 172"
            style="fill: #000000"
          >
            <g
              fill="none"
              fill-rule="nonzero"
              stroke="none"
              stroke-width="1"
              stroke-linecap="butt"
              stroke-linejoin="miter"
              stroke-miterlimit="10"
              stroke-dasharray=""
              stroke-dashoffset="0"
              font-family="none"
              font-weight="none"
              font-size="none"
              text-anchor="none"
              style="mix-blend-mode: normal"
            >
              <path d="M0,172v-172h172v172z" fill="none"></path>
              <g>
                <path
                  d="M150.5,132.58333c0,9.89717 -8.0195,17.91667 -17.91667,17.91667h-93.16667c-9.89358,0 -17.91667,-8.0195 -17.91667,-17.91667v-93.16667c0,-9.89717 8.02308,-17.91667 17.91667,-17.91667h93.16667c9.89717,0 17.91667,8.0195 17.91667,17.91667z"
                  fill="#0078d4"
                ></path>
                <path
                  d="M107.5,132.58333v-36.18808c0,-6.05225 -2.93475,-9.66783 -7.85467,-9.66783c-2.92042,0 -5.06683,1.64475 -6.37475,4.88767c-0.06092,0.22933 -0.14692,1.16458 -0.11108,3.99183l0.00717,36.97642h-25.08333v-68.08333h25.08333v3.80192c3.66217,-2.52625 8.15208,-3.80192 13.3945,-3.80192c16.29342,0 26.01858,11.08325 26.01858,29.6485l0.00358,38.43483zM39.41667,132.58333v-68.08333h12.38758c-7.17742,0 -12.38758,-5.27467 -12.38758,-12.54525c0,-7.26342 5.29617,-12.53808 12.59183,-12.53808c7.20967,0 12.34458,5.12775 12.4915,12.46642c0,7.32433 -5.29975,12.61692 -12.59542,12.61692h12.59542v68.08333z"
                  fill="#000000"
                  opacity="0.05"
                ></path>
                <path
                  d="M109.29167,130.79167v-34.39642c0,-7.06992 -3.69442,-11.4595 -9.64633,-11.4595c-4.64042,0 -6.93375,3.268 -8.03742,6.00925c-0.29383,0.71308 -0.25442,3.54392 -0.24008,4.7515l0.00717,35.09517h-21.5v-64.5h21.5v5.8695c2.84875,-2.94908 7.43542,-5.8695 15.18617,-5.8695c15.16825,0 24.22692,10.41317 24.22692,27.85683l0.00358,36.64317zM41.20833,130.79167v-64.5h21.5v64.5zM51.80425,62.70833c-6.13825,0 -10.59592,-4.52217 -10.59592,-10.75358c0,-6.22783 4.54367,-10.74642 10.80017,-10.74642c6.17767,0 10.57442,4.40392 10.69983,10.71058c0,6.26725 -4.54367,10.78942 -10.80375,10.78942z"
                  fill="#000000"
                  opacity="0.07"
                ></path>
                <path
                  d="M43,68.08333h17.91667v60.91667h-17.91667zM51.90458,60.91667h-0.10033c-5.34633,0 -8.80425,-3.98467 -8.80425,-8.96192c0,-5.08475 3.56542,-8.95475 9.0085,-8.95475c5.45025,0 8.80783,3.87 8.90817,8.95475c0,4.97367 -3.45792,8.96192 -9.01208,8.96192zM129,129h-17.91667v-32.60475c0,-7.87617 -4.38958,-13.25117 -11.438,-13.25117c-5.37858,0 -8.28825,3.62633 -9.70008,7.13083c-0.516,1.25417 -0.36192,4.72283 -0.36192,6.47508v32.25h-17.91667v-60.91667h17.91667v9.374c2.58358,-3.999 6.62917,-9.374 16.97783,-9.374c12.82117,0 22.43525,8.0625 22.43525,26.06517l0.00358,34.8515z"
                  fill="#ffffff"
                ></path>
              </g>
            </g>
          </svg>