<svg xmlns="http://www.w3.org/2000/svg" x="0px" y="0px"
width="60" height="60"
viewBox="0 0 172 172"
style=" fill:currentColor;"><g fill="none" fill-rule="nonzero" stroke="none" stroke-width="1" stroke-linecap="butt" stroke-linejoin="miter" stroke-miterlimit="10" stroke-dasharray="" stroke-dashoffset="0" font-family="none" font-weight="none" font-size="none" text-anchor="none" style="mix-blend-mode: normal"><path d="M0,172v-172h172v172z" fill="none"></path><g fill="currentColor"><path d="M86,15.05c-39.15914,0 -70.95,31.79086 -70.95,70.95c0,39.15914 31.79086,70.95 70.95,70.95c39.15914,0 70.95,-31.79086 70.95,-70.95c0,-39.15914 -31.79086,-70.95 -70.95,-70.95zM86,19.35c36.83524,0 66.65,29.81476 66.65,66.65c0,36.83524 -29.81476,66.65 -66.65,66.65c-36.83524,0 -66.65,-29.81476 -66.65,-66.65c0,-36.83524 29.81476,-66.65 66.65,-66.65zM86,25.8c-1.18741,0 -2.15,0.96259 -2.15,2.15c0,1.18741 0.96259,2.15 2.15,2.15c1.18741,0 2.15,-0.96259 2.15,-2.15c0,-1.18741 -0.96259,-2.15 -2.15,-2.15zM74.67471,26.91699c-1.18741,0 -2.15,0.96259 -2.15,2.15c0,1.18741 0.96259,2.15 2.15,2.15c1.18741,0 2.15,-0.96259 2.15,-2.15c0,-1.18741 -0.96259,-2.15 -2.15,-2.15zM97.32529,26.91699c-1.18741,0 -2.15,0.96259 -2.15,2.15c0,1.18741 0.96259,2.15 2.15,2.15c1.18741,0 2.15,-0.96259 2.15,-2.15c0,-1.18741 -0.96259,-2.15 -2.15,-2.15zM63.78613,30.21758c-1.18741,0 -2.15,0.96259 -2.15,2.15c0,1.18741 0.96259,2.15 2.15,2.15c1.18741,0 2.15,-0.96259 2.15,-2.15c0,-1.18741 -0.96259,-2.15 -2.15,-2.15zM108.21387,30.21758c-1.18741,0 -2.15,0.96259 -2.15,2.15c0,1.18741 0.96259,2.15 2.15,2.15c1.18741,0 2.15,-0.96259 2.15,-2.15c0,-1.18741 -0.96259,-2.15 -2.15,-2.15zM53.75,35.58418c-1.18741,0 -2.15,0.96259 -2.15,2.15c0,1.18741 0.96259,2.15 2.15,2.15c1.18741,0 2.15,-0.96259 2.15,-2.15c0,-1.18741 -0.96259,-2.15 -2.15,-2.15zM118.25,35.58418c-1.18741,0 -2.15,0.96259 -2.15,2.15c0,1.18741 0.96259,2.15 2.15,2.15c1.18741,0 2.15,-0.96259 2.15,-2.15c0,-1.18741 -0.96259,-2.15 -2.15,-2.15zM44.95264,42.80264c-1.18741,0 -2.15,0.96259 -2.15,2.15c0,1.18741 0.96259,2.15 2.15,2.15c1.18741,0 2.15,-0.96259 2.15,-2.15c0,-1.18741 -0.96259,-2.15 -2.15,-2.15zM127.04736,42.80264c-1.18741,0 -2.15,0.96259 -2.15,2.15c0,1.18741 0.96259,2.15 2.15,2.15c1.18741,0 2.15,-0.96259 2.15,-2.15c0,-1.18741 -0.96259,-2.15 -2.15,-2.15zM37.73418,51.6c-1.18741,0 -2.15,0.96259 -2.15,2.15c0,1.18741 0.96259,2.15 2.15,2.15c1.18741,0 2.15,-0.96259 2.15,-2.15c0,-1.18741 -0.96259,-2.15 -2.15,-2.15zM134.26582,51.6c-1.18741,0 -2.15,0.96259 -2.15,2.15c0,1.18741 0.96259,2.15 2.15,2.15c1.18741,0 2.15,-0.96259 2.15,-2.15c0,-1.18741 -0.96259,-2.15 -2.15,-2.15zM86,60.2c-0.66788,0 -1.33576,0.12175 -1.96943,0.36533h-0.0042l-38.6748,14.91143c-1.40559,0.54061 -2.35156,1.90501 -2.35156,3.41816v2.15h0.74746c0.40853,0.55095 0.94456,1.01381 1.6083,1.26816l0.0252,0.0084l4.06904,1.44873v17.17061c-1.27439,0.75175 -2.15,2.12835 -2.15,3.69531c0,0.94585 0.24088,1.43291 0.47871,2.05342c0.23784,0.62051 0.52937,1.25243 0.81465,1.83926c0.57056,1.17365 1.13379,2.17519 1.13379,2.17519l1.87285,3.33838l1.87285,-3.33838c0,0 0.56322,-1.00155 1.13379,-2.17519c0.28528,-0.58683 0.57681,-1.21875 0.81465,-1.83926c0.23783,-0.62051 0.47871,-1.10756 0.47871,-2.05342c0,-1.56699 -0.87561,-2.94357 -2.15,-3.69531v-15.63789l8.6,3.06543v10.53164v0.31494h0.03779c0.0975,0.87779 0.55675,1.61342 1.04561,2.09121c0.54784,0.53544 1.15426,0.88746 1.83506,1.20937c1.3616,0.64384 3.05777,1.12302 5.10625,1.53271c4.09696,0.81939 9.57204,1.30176 15.62529,1.30176c6.05326,0 11.52833,-0.48237 15.62529,-1.30176c2.04848,-0.4097 3.74465,-0.88888 5.10625,-1.53271c0.6808,-0.32192 1.28722,-0.67393 1.83506,-1.20937c0.48885,-0.47779 0.94811,-1.21342 1.04561,-2.09121h0.03779v-0.31494v-10.52744l16.97324,-6.05108l0.0252,-0.0084c0.66095,-0.2557 1.19648,-0.71765 1.6041,-1.26816h0.74746v-2.15c0,-1.512 -0.94635,-2.87815 -2.35156,-3.41816h-0.0042l-38.6748,-14.91143c-0.63368,-0.24359 -1.30156,-0.36533 -1.96943,-0.36533zM32.36758,61.63613c-1.18741,0 -2.15,0.96259 -2.15,2.15c0,1.18741 0.96259,2.15 2.15,2.15c1.18741,0 2.15,-0.96259 2.15,-2.15c0,-1.18741 -0.96259,-2.15 -2.15,-2.15zM139.63242,61.63613c-1.18741,0 -2.15,0.96259 -2.15,2.15c0,1.18741 0.96259,2.15 2.15,2.15c1.18741,0 2.15,-0.96259 2.15,-2.15c0,-1.18741 -0.96259,-2.15 -2.15,-2.15zM86,64.5c0.14402,0 0.28595,0.02667 0.42412,0.07978l37.0749,14.29414l-14.02539,4.99707c-0.35226,-1.21071 -1.22808,-2.2403 -2.43975,-2.73369h-0.0042c-2.98281,-1.20972 -10.45717,-3.7373 -21.02969,-3.7373c-10.57252,0 -18.04678,2.52758 -21.02969,3.7373h-0.0042c-1.20786,0.49188 -2.08598,1.52021 -2.43975,2.72949l-14.01699,-4.99707l37.0623,-14.28994c0.13817,-0.05312 0.2843,-0.07978 0.42832,-0.07978zM29.06699,72.52471c-1.18741,0 -2.15,0.96259 -2.15,2.15c0,1.18741 0.96259,2.15 2.15,2.15c1.18741,0 2.15,-0.96259 2.15,-2.15c0,-1.18741 -0.96259,-2.15 -2.15,-2.15zM142.93301,72.52471c-1.18741,0 -2.15,0.96259 -2.15,2.15c0,1.18741 0.96259,2.15 2.15,2.15c1.18741,0 2.15,-0.96259 2.15,-2.15c0,-1.18741 -0.96259,-2.15 -2.15,-2.15zM86,81.7c9.84182,0 16.72829,2.33802 19.35,3.39717v9.675c-1.09399,-0.387 -2.29221,-0.73391 -3.72471,-1.02041c-4.09696,-0.81939 -9.57204,-1.30176 -15.62529,-1.30176c-6.05326,0 -11.52833,0.48237 -15.62529,1.30176c-1.4325,0.2865 -2.63071,0.63341 -3.72471,1.02041v-9.675c2.62171,-1.05914 9.50818,-3.39717 19.35,-3.39717zM27.95,83.85c-1.18741,0 -2.15,0.96259 -2.15,2.15c0,1.18741 0.96259,2.15 2.15,2.15c1.18741,0 2.15,-0.96259 2.15,-2.15c0,-1.18741 -0.96259,-2.15 -2.15,-2.15zM144.05,83.85c-1.18741,0 -2.15,0.96259 -2.15,2.15c0,1.18741 0.96259,2.15 2.15,2.15c1.18741,0 2.15,-0.96259 2.15,-2.15c0,-1.18741 -0.96259,-2.15 -2.15,-2.15zM29.06699,95.17529c-1.18741,0 -2.15,0.96259 -2.15,2.15c0,1.18741 0.96259,2.15 2.15,2.15c1.18741,0 2.15,-0.96259 2.15,-2.15c0,-1.18741 -0.96259,-2.15 -2.15,-2.15zM142.93301,95.17529c-1.18741,0 -2.15,0.96259 -2.15,2.15c0,1.18741 0.96259,2.15 2.15,2.15c1.18741,0 2.15,-0.96259 2.15,-2.15c0,-1.18741 -0.96259,-2.15 -2.15,-2.15zM86,96.75c5.82087,0 11.09674,0.48087 14.78125,1.21777c1.43014,0.28603 2.34694,0.61679 3.19141,0.93223c-0.84446,0.31544 -1.76127,0.6462 -3.19141,0.93223c-3.68451,0.7369 -8.96038,1.21777 -14.78125,1.21777c-5.82087,0 -11.09674,-0.48087 -14.78125,-1.21777c-1.43014,-0.28603 -2.34694,-0.61679 -3.19141,-0.93223c0.84446,-0.31544 1.76127,-0.6462 3.19141,-0.93223c3.68451,-0.7369 8.96038,-1.21777 14.78125,-1.21777zM32.36758,106.06387c-1.18741,0 -2.15,0.96259 -2.15,2.15c0,1.18741 0.96259,2.15 2.15,2.15c1.18741,0 2.15,-0.96259 2.15,-2.15c0,-1.18741 -0.96259,-2.15 -2.15,-2.15zM139.63242,106.06387c-1.18741,0 -2.15,0.96259 -2.15,2.15c0,1.18741 0.96259,2.15 2.15,2.15c1.18741,0 2.15,-0.96259 2.15,-2.15c0,-1.18741 -0.96259,-2.15 -2.15,-2.15zM37.73418,116.1c-1.18741,0 -2.15,0.96259 -2.15,2.15c0,1.18741 0.96259,2.15 2.15,2.15c1.18741,0 2.15,-0.96259 2.15,-2.15c0,-1.18741 -0.96259,-2.15 -2.15,-2.15zM134.26582,116.1c-1.18741,0 -2.15,0.96259 -2.15,2.15c0,1.18741 0.96259,2.15 2.15,2.15c1.18741,0 2.15,-0.96259 2.15,-2.15c0,-1.18741 -0.96259,-2.15 -2.15,-2.15zM44.95264,124.89736c-1.18741,0 -2.15,0.96259 -2.15,2.15c0,1.18741 0.96259,2.15 2.15,2.15c1.18741,0 2.15,-0.96259 2.15,-2.15c0,-1.18741 -0.96259,-2.15 -2.15,-2.15zM127.04736,124.89736c-1.18741,0 -2.15,0.96259 -2.15,2.15c0,1.18741 0.96259,2.15 2.15,2.15c1.18741,0 2.15,-0.96259 2.15,-2.15c0,-1.18741 -0.96259,-2.15 -2.15,-2.15zM53.75,132.11582c-1.18741,0 -2.15,0.96259 -2.15,2.15c0,1.18741 0.96259,2.15 2.15,2.15c1.18741,0 2.15,-0.96259 2.15,-2.15c0,-1.18741 -0.96259,-2.15 -2.15,-2.15zM118.25,132.11582c-1.18741,0 -2.15,0.96259 -2.15,2.15c0,1.18741 0.96259,2.15 2.15,2.15c1.18741,0 2.15,-0.96259 2.15,-2.15c0,-1.18741 -0.96259,-2.15 -2.15,-2.15zM63.78613,137.48242c-1.18741,0 -2.15,0.96259 -2.15,2.15c0,1.18741 0.96259,2.15 2.15,2.15c1.18741,0 2.15,-0.96259 2.15,-2.15c0,-1.18741 -0.96259,-2.15 -2.15,-2.15zM108.21387,137.48242c-1.18741,0 -2.15,0.96259 -2.15,2.15c0,1.18741 0.96259,2.15 2.15,2.15c1.18741,0 2.15,-0.96259 2.15,-2.15c0,-1.18741 -0.96259,-2.15 -2.15,-2.15zM74.67471,140.78301c-1.18741,0 -2.15,0.96259 -2.15,2.15c0,1.18741 0.96259,2.15 2.15,2.15c1.18741,0 2.15,-0.96259 2.15,-2.15c0,-1.18741 -0.96259,-2.15 -2.15,-2.15zM97.32529,140.78301c-1.18741,0 -2.15,0.96259 -2.15,2.15c0,1.18741 0.96259,2.15 2.15,2.15c1.18741,0 2.15,-0.96259 2.15,-2.15c0,-1.18741 -0.96259,-2.15 -2.15,-2.15zM86,141.9c-1.18741,0 -2.15,0.96259 -2.15,2.15c0,1.18741 0.96259,2.15 2.15,2.15c1.18741,0 2.15,-0.96259 2.15,-2.15c0,-1.18741 -0.96259,-2.15 -2.15,-2.15z"></path></g></g></svg>