<svg xmlns="http://www.w3.org/2000/svg" x="0px" y="0px"
width="64" height="64"
viewBox="0 0 172 172"
style=" fill:#000000;"><g fill="none" fill-rule="nonzero" stroke="none" stroke-width="1" stroke-linecap="butt" stroke-linejoin="miter" stroke-miterlimit="10" stroke-dasharray="" stroke-dashoffset="0" font-family="none" font-weight="none" font-size="none" text-anchor="none" style="mix-blend-mode: normal"><path d="M0,172v-172h172v172z" fill="none"></path><g fill="#f1c40f"><path d="M83.98438,25.02734c-17.22688,0 -31.24219,14.01531 -31.24219,31.24219c0,11.53223 6.28154,21.62441 15.60207,27.03706c-23.91124,6.81771 -41.46925,28.86258 -41.46925,54.93169v5.375c0,1.85505 1.50399,3.35938 3.35938,3.35938h107.5c1.85505,0 3.35938,-1.50433 3.35938,-3.35937v-5.375c0,-26.0691 -17.55801,-48.11398 -41.46925,-54.93169c9.32053,-5.41265 15.60207,-15.50483 15.60207,-27.03706c0,-17.22687 -14.01531,-31.24219 -31.24219,-31.24219zM83.98438,31.74609c13.52216,0 24.52344,11.00128 24.52344,24.52344c0,13.52216 -11.00128,24.52344 -24.52344,24.52344c-13.52216,0 -24.52344,-11.00128 -24.52344,-24.52344c0,-13.52216 11.00128,-24.52344 24.52344,-24.52344zM83.98438,87.84766c27.78539,0 50.39063,22.60523 50.39063,50.39063v2.01563h-100.78125v-2.01562c0,-27.78539 22.60523,-50.39062 50.39063,-50.39062z"></path></g></g></svg>